<?xml version="1.0" encoding="utf-8"?>
<!-- Generator: Adobe Illustrator 18.1.1, SVG Export Plug-In . SVG Version: 6.00 Build 0)  -->
<svg version="1.1" id="Layer_1" xmlns="http://www.w3.org/2000/svg" xmlns:xlink="http://www.w3.org/1999/xlink" x="0px" y="0px"
	 viewBox="0 0 126.4 166" enable-background="new 0 0 126.4 166" xml:space="preserve">
<g>
	<g>
		<polygon points="56.8,77.1 36.3,67.7 52.3,65.5 		"/>
	</g>
	<g>
		<polygon points="69.6,77.1 90.2,67.7 74.2,65.5 		"/>
	</g>
	<g>
		<path d="M63.2,122.1L56,121L6,66.2l13.7-20.7c-1-29.6,2-43.6,9.4-45.3C35-1.2,41.9,5.5,50.8,21.1C56.9,31.8,61.7,42.9,61.7,43
			l-4.4,1.9c0-0.1-4.7-11-10.7-21.4C35.9,4.7,31,4.7,30.2,4.9C29.6,5,27.4,6,25.9,13.6c-1.4,7.1-1.9,18-1.4,32.5l0,0.8L12,65.7
			l46.3,50.8l5.5,0.8L63.2,122.1z"/>
	</g>
	<g>
		<path d="M63.3,122.1l-0.7-4.8l5.5-0.8l46.3-50.8l-12.5-18.9l0-0.8c0.5-14.4,0-25.4-1.4-32.5C99,6,96.9,5,96.2,4.9
			c-0.9-0.2-5.7-0.2-16.4,18.6c-5.9,10.4-10.6,21.3-10.7,21.4L64.7,43c0-0.1,4.8-11.2,10.9-21.9C84.5,5.5,91.4-1.2,97.3,0.2
			c7.5,1.7,10.4,15.7,9.4,45.3l13.7,20.7l-50,54.8L63.3,122.1z"/>
	</g>
	<g>
		<path d="M65.7,43.5c-2.4-1.2-4.7-0.1-4.8,0l-2.2-4.3c0.2-0.1,4.5-2.3,9.2,0L65.7,43.5z"/>
	</g>
</g>
<g>
	<path d="M30.2,128.4V166h-8.5l0-25.4L18.2,166h-6.1l-3.6-24.8l0,24.8H0v-37.6h12.7c0.4,2.3,0.8,4.9,1.2,8l1.4,9.6l2.2-17.6H30.2z"
		/>
	<path d="M51,128.4l5.6,37.6h-10l-0.5-6.8h-3.5L42,166H31.9l5-37.6H51z M45.8,152.6c-0.5-4.3-1-9.5-1.5-15.8
		c-1,7.2-1.6,12.5-1.9,15.8H45.8z"/>
	<path d="M80.1,128.4V166h-8.6L66.4,149V166h-8.2v-37.6h8.2l5.5,16.9v-16.9H80.1z"/>
	<path d="M84,128.4h16.3v7.5h-6.5v7.1h6.1v7.2h-6.1v8.3h7.2v7.5H84V128.4z"/>
	<path d="M103.8,128.4h7.3c4.7,0,7.9,0.2,9.6,0.7c1.7,0.4,2.9,1.1,3.8,2.1c0.9,1,1.4,2.1,1.6,3.3c0.2,1.2,0.3,3.6,0.3,7.2v13.2
		c0,3.4-0.2,5.6-0.5,6.8c-0.3,1.1-0.9,2-1.7,2.7c-0.8,0.6-1.8,1.1-2.9,1.3s-2.9,0.4-5.2,0.4h-12.3V128.4z M113.5,134.9v24.7
		c1.4,0,2.3-0.3,2.6-0.8c0.3-0.6,0.5-2.1,0.5-4.6v-14.6c0-1.7-0.1-2.8-0.2-3.3c-0.1-0.5-0.4-0.8-0.7-1.1
		C115.3,135,114.6,134.9,113.5,134.9z"/>
</g>
</svg>
