<?xml version="1.0" encoding="utf-8"?>
<!-- Generator: Adobe Illustrator 18.1.1, SVG Export Plug-In . SVG Version: 6.00 Build 0)  -->
<svg version="1.1" xmlns="http://www.w3.org/2000/svg" xmlns:xlink="http://www.w3.org/1999/xlink" x="0px" y="0px"
	 viewBox="0 0 915 321.3" enable-background="new 0 0 915 321.3" xml:space="preserve">
<g id="Layer_1">
	<g id="Layer_2">
	</g>
	<g id="Layer_3">
	</g>
</g>
<g id="Layer_5">
</g>
<g id="Layer_6">
</g>
<g id="Layer_7">
</g>
<g id="Layer_4">
	<g>
		<g opacity="0.15">
			<g>
				<path d="M58.5,185c12.4-8.8,30.8-5.4,39.1,7.4c0.8,1.2,2.8,0.8,2.8-0.8c0.3-12-8.5-23.5-20.7-24.9c-11.3-1.4-22.2,6.1-25.8,16.7
					c-0.4,1.3,1.1,2.3,2.2,1.7c6.2-3.5,14-5.3,21-4.8c13.9,1,20.5,12.2,27.8,22.6c1.1,1.6,3.7,0.1,2.6-1.5c-2.4-3.5-4.9-7-7.3-10.4
					c-1.1-1.6-3.7-0.1-2.6,1.5c2.4,3.5,4.9,7,7.3,10.4c0.9-0.5,1.7-1,2.6-1.5c-7.5-10.7-14.2-21.9-28.2-23.8
					c-8.2-1.1-17.4,0.9-24.7,5c0.7,0.6,1.5,1.1,2.2,1.7c3.2-9.4,13.4-16.2,23.4-14.4c10.3,1.8,17.4,11.7,17.2,21.9
					c0.9-0.3,1.9-0.5,2.8-0.8c-9.1-14.1-29.4-18.2-43.2-8.5C55.5,183.6,56.9,186.2,58.5,185L58.5,185z"/>
			</g>
		</g>
		<g opacity="0.15">
			<g>
				<path d="M171.3,291.3c8-12.8,13.4-27,19-40.9c5.9-14.4,11.7-28.7,17.5-43.1c3-7.5,6-15.1,9.3-22.6c2.1-4.8,4.7-9.9,8.8-13.4
					c12.6-10.5,22.6,6,26.7,16c0.7-0.6,1.5-1.1,2.2-1.7c-13.2-9.7-31.3-10-44.9-1c-1.6,1.1-0.1,3.7,1.5,2.6
					c12.8-8.5,29.5-8.1,41.9,1c1,0.7,2.7-0.5,2.2-1.7c-3.6-8.9-9.3-20.7-20.4-21.4c-12.5-0.8-18.4,12.6-22.4,22.1
					c-7.1,16.9-13.8,33.9-20.7,50.9c-7.1,17.5-13.5,35.6-23.4,51.7C167.7,291.4,170.3,292.9,171.3,291.3L171.3,291.3z"/>
			</g>
		</g>
		<g opacity="0.15">
			<g>
				<path d="M94.9,188.6c14.2,26.2,14.3,56.4,6.5,84.6c-0.5,1.9,2.4,2.7,2.9,0.8c8.1-29,7.8-60-6.8-86.9
					C96.5,185.4,94,186.9,94.9,188.6L94.9,188.6z"/>
			</g>
		</g>
		<g opacity="0.15">
			<g>
				<path d="M104.9,293c4,3,8,6.1,12,9.1c2.2,1.6,4.4,4,7.3,3.9c3.7,0,7.9-3.6,10.7-5.6c3.4-2.4,6.6-5.1,9.6-7.9c1-1,0-3-1.5-2.5
					c-11.5,4-23.5,4.9-35.4,2.5c-1.9-0.4-2.7,2.5-0.8,2.9c12.5,2.5,25,1.7,37-2.5c-0.5-0.8-1-1.7-1.5-2.5c-2.8,2.7-5.8,5.2-9,7.5
					c-2.6,1.8-5.9,4.6-9.2,4.6c-3.4,0-6.2-3.2-8.8-5.2c-3-2.3-6-4.5-9-6.8C104.9,289.2,103.4,291.8,104.9,293L104.9,293z"/>
			</g>
		</g>
		<g opacity="0.15">
			<g>
				<path d="M95.7,194.7c10.1,6.5,14.3,18.2,20.9,27.7c6.5,9.2,15.6,15,27.1,14.4c13.3-0.7,24.4-8.5,34.2-16.9
					c12.8-11,25.2-22.4,37.8-33.5c1.4-1.3-0.7-3.4-2.1-2.1c-11.6,10.3-23.1,20.6-34.7,30.8c-10.4,9.2-22.2,18.7-36.8,18.8
					c-25.2,0.1-27.2-30.3-45-41.7C95.6,191.1,94,193.7,95.7,194.7L95.7,194.7z"/>
			</g>
		</g>
		<g>
			<g>
				<path d="M161.5,95.3c0.6-20.7-2.9-41.1-3.2-61.7C157.9,11.5,184,2,202.6,3.2c40.5,2.7,62,43.5,68.4,79c0.3,1.9,3.2,1.1,2.9-0.8
					c-5.3-29.5-19.7-61.4-48.2-75.1c-13.9-6.7-30.3-8.4-45-3.2c-12.8,4.5-25.2,14.2-25.4,28.8c-0.3,21.2,3.8,42.1,3.2,63.3
					C158.4,97.3,161.4,97.3,161.5,95.3L161.5,95.3z"/>
			</g>
		</g>
		<g>
			<g>
				<path d="M32.9,119.7c-4.1-8.8-8.6-17.4-14.1-25.4c-5-7.2-12.1-14.4-14.5-23c-5.2-19.3,18.8-32.1,34.5-34.4
					c17.7-2.6,35.6,3.4,49.2,14.8c6.8,5.7,12.6,12.7,17.3,20.3c4.8,7.8,8.2,16.2,13.1,23.9c1,1.6,3.6,0.1,2.6-1.5
					c-8.6-13.5-14-28.1-25.4-39.8c-10.1-10.4-23.4-18-37.8-20.4c-13.4-2.3-27.8-0.3-39.5,6.7C7.3,47.5-2.6,59.4,1.6,72.8
					c2.6,8.4,9.1,15.2,14,22.3c5.7,8.2,10.5,17.1,14.7,26.1C31.1,123,33.7,121.5,32.9,119.7L32.9,119.7z"/>
			</g>
		</g>
		<g opacity="0.15">
			<g>
				<path d="M59.6,92.4c2.4,4.2,4.7,8.6,7.2,12.7c1.8,2.9,3.7,6.5,6.5,8.5c4.9,3.4,10.7,0.2,15.7-1.5c1.8-0.6,1-3.5-0.8-2.9
					c-2.2,0.8-4.4,1.8-6.7,2.4c-4.9,1.2-7.5-1.1-10.2-4.9c-3.5-5-6.2-10.5-9.2-15.8C61.2,89.2,58.7,90.7,59.6,92.4L59.6,92.4z"/>
			</g>
		</g>
		<g opacity="0.15">
			<g>
				<path d="M40.8,120.1c5.6,1.6,14.4,4,19.5,0.1c2.3-1.8,3-4.5,2.7-7.3c-0.8-6.4-4.4-13-6.8-18.9c-0.7-1.8-3.6-1-2.9,0.8
					c1.9,4.7,11.1,21.1,3.6,23.9c-4.6,1.7-10.8-0.1-15.3-1.4C39.7,116.7,38.9,119.6,40.8,120.1L40.8,120.1z"/>
			</g>
		</g>
		<g opacity="0.15">
			<g>
				<path d="M216.5,80.7c1.8,8.2,5.5,16,14.1,18.7c9.6,3,19.3-1.2,28-5.2c1.8-0.8,0.2-3.4-1.5-2.6c-7.4,3.4-15.9,7.3-24.2,5.3
					c-8.5-2-11.8-9.2-13.5-17C219,78,216.1,78.8,216.5,80.7L216.5,80.7z"/>
			</g>
		</g>
		<g opacity="0.15">
			<g>
				<path d="M182.9,99c5.9,1.2,11.7,3,17.7,3.4c3.1,0.2,8,0.8,9.3-2.9c0.7-1.9,0.2-5.3,0.2-7.4c0-3.5,0.1-7.1,0.1-10.6
					c0-7.1-0.2-14.1-0.8-21.2c-0.2-1.9-3.2-1.9-3,0c0.9,9.9,0.8,19.9,0.7,29.8c0,1.7,0.6,5.3-0.1,6.8c-1.8,3.8-6.5,2.5-9.6,2
					c-4.7-0.7-9.2-2-13.8-2.9C181.8,95.7,181,98.6,182.9,99L182.9,99z"/>
			</g>
		</g>
		<path fill="#FFAA00" d="M285.1,241.3c0,0-23.1-63.1-8.5-119.2l-2.3-5.2l-244.1,2.8c0,0,31.6,84.6,14.5,118.2l66.1,46.6l64.4-7"/>
		<path fill="#FFAA00" d="M30.1,119.6c0,0,36-4.8,9.1-60.5c0,0,42.6,75.6,81.2,35.3l9.3,25.6L30.1,119.6z"/>
		<path fill="#FFAA00" d="M276.5,122.1c0,0-2.5-40.2-3.4-41.8c0,0-45.5,49.1-69.6-60.7c0,0,9.3,87.3-44.5,75l3.4,24.6L276.5,122.1z"
			/>
		<path fill="#FFAA00" d="M120.3,94.2c3.5,9.2,12.5,14.9,21.6,13.9c7.6-0.8,14.2-6.1,17.1-13.5l5.5,25.2l-37.7,0.6L120.3,94.2z"/>
		<path fill="#FFAA00" d="M139.3,84.8"/>
		<path d="M61.5,184.8c0,0,22.9-13,36.7,5.9c0.2-9.7-6.9-18-16.3-19.2C73,170.3,64.2,175.9,61.5,184.8z"/>
		<path d="M213.9,184.8c0,0,22.8-12.9,36.6,5.9c0.2-9.6-6.9-17.9-16.2-19.2C225.3,170.3,216.6,175.9,213.9,184.8z"/>
		<path d="M98.3,190.7c0,0,37.6,100.7,115.7-5.2c0,0-35.3,93.4-42.5,105.8c-22.6,28.3-51.6,35.6-64.7,25.8c-9.7-7.3-9.6-23-9.5-27.3
			C97.3,289.9,109.6,218.9,98.3,190.7z"/>
		<path fill="#FFFFFF" d="M104.3,296.2c0,0,10.7,10.2,11.7,15.6c0,0,18.5-7.2,27.5-8.4C143.5,303.4,111.3,302.6,104.3,296.2z"/>
	</g>
</g>
<g id="Layer_8">
	<text transform="matrix(1 0 0 1 343.1041 241.3567)" font-family="'ProximaNova-Bold'" font-size="187.3978">Maned</text>
</g>
</svg>
